<svg xmlns="http://www.w3.org/2000/svg" xmlns:xlink="http://www.w3.org/1999/xlink" width="1280" height="2189" viewBox="0 0 1280 2189">
  <defs>
    <clipPath id="clip-Web_1280_13">
      <rect width="1280" height="2189"/>
    </clipPath>
  </defs>
  <g id="Web_1280_13" data-name="Web 1280 – 13" clip-path="url(#clip-Web_1280_13)">
    <rect width="1280" height="2189" fill="#fff"/>
    <circle id="Oval_Copy_12" data-name="Oval Copy 12" cx="12" cy="12" r="12" transform="translate(1061 1104.5)" fill="#af2224"/>
    <circle id="Oval_Copy_18" data-name="Oval Copy 18" cx="12" cy="12" r="12" transform="translate(804 1138.5)" fill="#efaf9f"/>
    <circle id="Oval_Copy_6" data-name="Oval Copy 6" cx="12" cy="12" r="12" transform="translate(842 1138.5)" fill="#e27034"/>
    <circle id="Oval_Copy_2" data-name="Oval Copy 2" cx="12" cy="12" r="12" transform="translate(666 1138.5)" fill="#f0d46b"/>
    <circle id="Oval_Copy_4" data-name="Oval Copy 4" cx="12" cy="12" r="12" transform="translate(648 1104.5)" fill="#b66d2b"/>
    <circle id="Oval_Copy_14" data-name="Oval Copy 14" cx="12" cy="12" r="12" transform="translate(1024 1138.5)" fill="#8d3621"/>
    <circle id="Oval_Copy" data-name="Oval Copy" cx="12" cy="12" r="12" transform="translate(629 1138.5)" fill="#e5e29c"/>
    <circle id="Oval_Copy_15" data-name="Oval Copy 15" cx="12" cy="12" r="12" transform="translate(1023 1070.5)" fill="#561930"/>
    <circle id="Oval_Copy_9" data-name="Oval Copy 9" cx="12" cy="12" r="12" transform="translate(880 1138.5)" fill="#e8684a"/>
    <circle id="Oval_Copy_3" data-name="Oval Copy 3" cx="12" cy="12" r="12" transform="translate(703 1138.5)" fill="#eec157"/>
    <circle id="Oval_Copy_16" data-name="Oval Copy 16" cx="12" cy="12" r="12" transform="translate(986 1138.5)" fill="#9b3123"/>
    <circle id="Oval_Copy_5" data-name="Oval Copy 5" cx="12" cy="12" r="12" transform="translate(687 1104.5)" fill="#efa838"/>
    <circle id="Oval_Copy_17" data-name="Oval Copy 17" cx="12" cy="12" r="12" transform="translate(1061 1139.5)" fill="#88261c"/>
    <circle id="Oval_Copy_19" data-name="Oval Copy 19" cx="12" cy="12" r="12" transform="translate(1023 1104.5)" fill="#6a1f2f"/>
    <circle id="Oval_Copy_11" data-name="Oval Copy 11" cx="12" cy="12" r="12" transform="translate(985 1104.5)" fill="#7b122c"/>
    <text id="White" transform="translate(653 1204.5)" font-size="20" font-family="HelveticaNeue-Medium, Helvetica Neue" font-weight="500"><tspan x="0" y="0">White</tspan></text>
    <text id="Rose" transform="translate(855 1204.5)" font-size="20" font-family="HelveticaNeue-Medium, Helvetica Neue" font-weight="500"><tspan x="-23.72" y="0">Rose</tspan></text>
    <text id="Red" transform="translate(1018 1204.5)" font-size="20" font-family="HelveticaNeue-Medium, Helvetica Neue" font-weight="500"><tspan x="0" y="0">Red</tspan></text>
    <circle id="Oval_Copy_12-2" data-name="Oval Copy 12" cx="12" cy="12" r="12" transform="translate(965 400.5)" fill="#af2224"/>
    <circle id="Oval_Copy_18-2" data-name="Oval Copy 18" cx="12" cy="12" r="12" transform="translate(934 307.5)" fill="#efaf9f"/>
    <circle id="Oval_Copy_6-2" data-name="Oval Copy 6" cx="12" cy="12" r="12" transform="translate(996 307.5)" fill="#e27034"/>
    <circle id="Oval_Copy_2-2" data-name="Oval Copy 2" cx="12" cy="12" r="12" transform="translate(689 307.5)" fill="#f0d46b"/>
    <circle id="Oval_Copy_4-2" data-name="Oval Copy 4" cx="12" cy="12" r="12" transform="translate(812 307.5)" fill="#b66d2b"/>
    <circle id="Oval_Copy_14-2" data-name="Oval Copy 14" cx="12" cy="12" r="12" transform="translate(719 400.5)" fill="#8d3621"/>
    <circle id="Oval_Copy-2" data-name="Oval Copy" cx="12" cy="12" r="12" transform="translate(631 307.5)" fill="#e5e29c"/>
    <circle id="Oval_Copy_15-2" data-name="Oval Copy 15" cx="12" cy="12" r="12" transform="translate(1026 400.5)" fill="#561930"/>
    <circle id="Oval_Copy_9-2" data-name="Oval Copy 9" cx="12" cy="12" r="12" transform="translate(1057 307.5)" fill="#e8684a"/>
    <circle id="Oval_Copy_3-2" data-name="Oval Copy 3" cx="12" cy="12" r="12" transform="translate(751 307.5)" fill="#eec157"/>
    <circle id="Oval_Copy_16-2" data-name="Oval Copy 16" cx="12" cy="12" r="12" transform="translate(658 400.5)" fill="#9b3123"/>
    <circle id="Oval_Copy_5-2" data-name="Oval Copy 5" cx="12" cy="12" r="12" transform="translate(873 307.5)" fill="#efa838"/>
    <circle id="Oval_Copy_17-2" data-name="Oval Copy 17" cx="12" cy="12" r="12" transform="translate(780 400.5)" fill="#88261c"/>
    <circle id="Oval_Copy_19-2" data-name="Oval Copy 19" cx="12" cy="12" r="12" transform="translate(903 400.5)" fill="#6a1f2f"/>
    <circle id="Oval_Copy_11-2" data-name="Oval Copy 11" cx="12" cy="12" r="12" transform="translate(842 400.5)" fill="#7b122c"/>
  </g>
</svg>
